<svg role="img" viewBox="0 0 800 800" xmlns="http://www.w3.org/2000/svg" id="Pydantic--Streamline-Simple-Icons" height="800" width="800">
  <desc>
    Pydantic Streamline Icon: https://streamlinehq.com
  </desc>
  <title>Pydantic</title>
  <path d="m794.2 577.2 -141.00000000000003 -195.53333333333333 -228.23333333333338 -316.53333333333336c-11.6 -16 -38.36666666666667 -16 -49.900000000000006 0l-228.16666666666669 316.4666666666667 -141.1 195.60000000000002a30.833333333333336 30.833333333333336 0 0 0 15.333333333333336 47.23333333333334l369.26666666666665 120.86666666666667h0.06666666666666668a30.66666666666667 30.66666666666667 0 0 0 19.066666666666666 0h0.06666666666666668l369.23333333333335 -120.86666666666667c9.333333333333336 -3.066666666666667 16.666666666666668 -10.333333333333334 19.666666666666668 -19.733333333333334a30.533333333333335 30.533333333333335 0 0 0 -4.333333333333334 -27.5h0.06666666666666668ZM400.03333333333336 135.66666666666669l148.00000000000003 205.26666666666668 -138.4 -45.33333333333334c-1.0666666666666669 -0.33333333333333337 -2.2 -0.2666666666666667 -3.266666666666667 -0.5333333333333334a26.66666666666667 26.66666666666667 0 0 0 -3.2 -0.5333333333333334c-1.0666666666666669 -0.13333333333333336 -2.066666666666667 -0.5333333333333334 -3.1333333333333337 -0.5333333333333334s-2.066666666666667 0.4 -3.1333333333333337 0.5333333333333334a24.666666666666668 24.666666666666668 0 0 0 -3.2 0.5333333333333334c-1.0666666666666669 0.2 -2.2 0.2 -3.2 0.5333333333333334L253 340.70000000000005l-0.8666666666666667 0.2666666666666667 148.00000000000003 -205.26666666666668h-0.06666666666666668Zm-209.1 290 161.13333333333333 -52.766666666666666 17.200000000000003 -5.6000000000000005v306.3333333333333L80.33333333333334 579.0666666666667l110.56666666666668 -153.33333333333334Zm239.9 247.90000000000003V367.33333333333337l178.33333333333334 58.400000000000006 110.53333333333333 153.26666666666668 -288.8666666666667 94.60000000000001Z" fill="#ffa726" stroke-width="33.3333"></path>
</svg>